HIERARCHY
ROOT Hips
{
  OFFSET 43.0842 91.1655 101.099
  CHANNELS 6 Xposition Yposition Zposition Zrotation Xrotation Yrotation
  JOINT LeftUpLeg
  {
    OFFSET 8.64259 1.95398 -2.38835
    CHANNELS 3 Zrotation Xrotation Yrotation
    JOINT LeftLeg
    {
      OFFSET 43.7702 0 0
      CHANNELS 3 Zrotation Xrotation Yrotation
      JOINT LeftFoot
      {
        OFFSET 40.6238 0 0
        CHANNELS 3 Zrotation Xrotation Yrotation
        JOINT LeftToeBase
        {
          OFFSET 12.7242 0 0
          CHANNELS 3 Zrotation Xrotation Yrotation
          End Site
          {
            OFFSET 0 0 0
          }
        }
      }
    }
  }
  JOINT RightUpLeg
  {
    OFFSET -8.2249 1.95398 -2.59336
    CHANNELS 3 Zrotation Xrotation Yrotation
    JOINT RightLeg
    {
      OFFSET 43.5653 0 0
      CHANNELS 3 Zrotation Xrotation Yrotation
      JOINT RightFoot
      {
        OFFSET 40.6238 0 0
        CHANNELS 3 Zrotation Xrotation Yrotation
        JOINT RightToeBase
        {
          OFFSET 12.7242 0 0
          CHANNELS 3 Zrotation Xrotation Yrotation
          End Site
          {
            OFFSET 0 0 0
          }
        }
      }
    }
  }
  JOINT Spine
  {
    OFFSET 0.165834 0.87714 6.61349
    CHANNELS 3 Zrotation Xrotation Yrotation
    JOINT Spine1
    {
      OFFSET 7.38963 1.71661e-005 0
      CHANNELS 3 Zrotation Xrotation Yrotation
      JOINT Spine2
      {
        OFFSET 11.9445 1.14441e-005 0
        CHANNELS 3 Zrotation Xrotation Yrotation
        JOINT Spine3
        {
          OFFSET 14.7254 4.19617e-005 0
          CHANNELS 3 Zrotation Xrotation Yrotation
          JOINT Spine4
          {
            OFFSET 10.9679 0 0
            CHANNELS 3 Zrotation Xrotation Yrotation
            JOINT RightShoulder
            {
              OFFSET 2.46616 -1.6653 3.69651
              CHANNELS 3 Zrotation Xrotation Yrotation
              JOINT RightArm
              {
                OFFSET 13.0012 0 0
                CHANNELS 3 Zrotation Xrotation Yrotation
                JOINT RightForeArm
                {
                  OFFSET 28.7848 1.52588e-005 0
                  CHANNELS 3 Zrotation Xrotation Yrotation
                  JOINT RightHand
                  {
                    OFFSET 26.5688 1.52588e-005 0
                    CHANNELS 3 Zrotation Xrotation Yrotation
                    End Site
                    {
                      OFFSET 0 0 0
                    }
                  }
                }
              }
            }
            JOINT LeftShoulder
            {
              OFFSET 2.38034 -1.29275 -3.7523
              CHANNELS 3 Zrotation Xrotation Yrotation
              JOINT LeftArm
              {
                OFFSET 16.3182 6.10351e-005 0
                CHANNELS 3 Zrotation Xrotation Yrotation
                JOINT LeftForeArm
                {
                  OFFSET 27.0901 0 0
                  CHANNELS 3 Zrotation Xrotation Yrotation
                  JOINT LeftHand
                  {
                    OFFSET 24.5451 1.52588e-005 0
                    CHANNELS 3 Zrotation Xrotation Yrotation
                    End Site
                    {
                      OFFSET 0 0 0
                    }
                  }
                }
              }
            }
            JOINT Neck
            {
              OFFSET 5.0226 -0.0266342 0
              CHANNELS 3 Zrotation Xrotation Yrotation
              JOINT Head
              {
                OFFSET 6.69364 2.86102e-005 0
                CHANNELS 3 Zrotation Xrotation Yrotation
                End Site
                {
                  OFFSET 0 0 0
                }
              }
            }
          }
        }
      }
    }
  }
}
MOTION
Frames:	12
Frame Time:	0.0333333
71.8033 88.3336 171.973 -100.598 -48.1196 -102.365 -166.51 27.3742 104.715 -44.614 28.4442 -5.22103 61.1212 -0.517631 14.965 33.6327 1.80603 7.8825 166.179 16.835 83.3939 -54.7156 1.91379 -0.825651 77.4894 -15.0359 -14.6586 49.38 -11.0853 0.544724 -0.171953 7.82037 -89.7414 11.2339 -0.221789 0.537392 -0.437178 -0.197916 0.546628 -22.9717 -0.373046 0.445894 -2.95909 -0.37303 0.445896 95.7882 -39.8754 -93.3255 17.5613 -21.8483 -60.8254 -8.81503 -6.71995 -120.827 -1.50303 1.95536 9.77704 -109.64 -61.0671 55.3381 21.9689 -49.1061 -0.147995 8.29949 20.3046 -85.08 8.85374 0.457838 2.81313 -9.27435 20.1874 12.5793 5.0342 19.9227 6.74606 
71.6034 88.4904 172.161 -100.607 -46.6707 -102.491 -165.534 26.4519 104.948 -44.0708 27.4786 -5.86636 61.2332 -0.515539 14.9048 33.6891 1.89145 7.87923 166.851 16.5828 83.2673 -54.7565 0.845594 -1.37166 77.0815 -14.8609 -14.7379 49.417 -11.0974 0.49105 -0.0328836 7.85762 -89.6738 11.1579 0.0861215 0.641 -0.513168 0.114275 0.636583 -23.0471 -0.110495 0.637255 -3.03443 -0.110487 0.637255 95.601 -40.4877 -93.5574 16.7317 -22.0936 -60.9836 -9.03558 -6.10196 -120.634 -0.961544 2.08762 9.28795 -108.592 -60.6053 56.479 21.6143 -48.9447 -0.0404563 8.41293 20.2597 -85.3749 8.97314 0.506571 2.56835 -8.77946 20.4371 10.9013 4.39229 20.3059 8.54961 
71.794 88.3214 171.93 -100.449 -48.0521 -102.056 -166.41 27.6871 104.706 -44.8588 27.1999 -5.17348 61.3425 0.0118277 14.0817 33.6164 1.13278 8.94262 166.449 16.932 83.8024 -54.7206 2.44786 -0.937306 77.1445 -14.6449 -14.6915 49.7351 -11.2723 0.61784 -0.134548 7.77544 -89.738 11.323 -0.145589 0.53607 -0.348063 -0.121874 0.541949 -22.8826 -0.299977 0.467525 -2.86993 -0.299988 0.46752 95.842 -40.5554 -93.1249 15.808 -23.0163 -60.7073 -9.4162 -4.98102 -120.729 -1.4725 1.95161 9.65475 -108.907 -60.7235 56.1258 22.3143 -48.175 1.00094 8.71393 20.1575 -85.8853 9.34895 0.650951 1.86626 -8.83383 21.1629 9.7922 3.83914 21.1649 10.0361 
71.7941 88.2981 171.984 -100.605 -48.0569 -102.144 -166.567 27.6677 104.726 -45.138 26.9156 -5.02398 61.2653 -0.224595 14.0609 33.8354 1.63746 8.64863 166.594 16.7273 83.864 -54.6283 2.43308 -1.02364 77.2249 -14.8219 -14.8374 49.485 -11.1152 0.34916 -0.116583 7.77731 -89.7392 11.3193 -0.110436 0.530388 -0.351802 -0.0869883 0.534729 -22.8863 -0.264729 0.472682 -2.87363 -0.264734 0.472679 95.7918 -40.7041 -93.1898 16.0871 -22.8601 -60.0383 -9.45896 -5.09614 -120.889 -1.18086 2.01226 9.31334 -108.82 -60.6204 56.1937 22.0717 -47.8113 1.1909 9.23768 20.0368 -86.4252 9.21581 0.603668 2.0841 -8.80322 22.0513 9.38463 3.88356 22.1001 10.4543 
71.8394 88.2537 172.065 -100.594 -48.0785 -102.224 -166.596 27.7381 104.569 -45.3595 26.454 -4.97776 61.3447 -0.0602639 13.76 33.9724 1.53159 9.15321 166.697 16.7861 83.7648 -54.7408 2.47901 -1.13684 77.1955 -14.7835 -14.8053 49.509 -11.11 0.203704 -0.119751 7.79093 -89.7332 11.292 -0.114061 0.542528 -0.379058 -0.0900982 0.547022 -22.9135 -0.271864 0.483164 -2.90086 -0.271862 0.483162 95.6929 -40.8805 -93.3346 15.525 -22.8896 -60.3433 -8.83234 -5.30571 -120.758 -1.37951 1.98209 9.62904 -108.987 -60.722 56.0231 22.1202 -47.0944 1.29136 9.04808 19.7816 -86.5646 9.00627 0.543601 2.29924 -8.34477 22.966 9.55289 3.77028 22.9163 10.0631 
71.8974 88.1968 172.171 -100.571 -48.1882 -102.202 -166.681 28.0177 104.403 -45.9967 26.2128 -4.85144 61.5795 0.331805 13.7279 33.7275 0.963284 9.48101 166.639 16.7972 83.6443 -54.7458 2.0755 -1.09961 77.324 -14.9967 -15.0923 49.3858 -10.9978 -0.210102 -0.116748 7.80453 -89.7424 11.2647 -0.112354 0.52406 -0.406304 -0.0891872 0.528497 -22.9408 -0.264664 0.466071 -2.92816 -0.264668 0.466062 95.7447 -40.8702 -93.2459 14.7374 -23.3692 -60.6955 -9.04728 -4.64525 -120.686 -1.45164 1.96303 9.68371 -108.967 -60.753 56.0616 21.6632 -46.2441 0.806384 11.3245 19.8583 -86.7529 9.49357 0.711421 1.54398 -7.93225 23.7076 10.188 3.9358 23.527 9.25846 
72.0537 88.0836 172.356 -100.564 -48.6113 -102.249 -166.901 28.4761 104.158 -46.6718 26.8835 -4.7064 61.5815 0.403132 14.4822 33.7121 0.976653 9.42322 166.417 17.0338 83.3666 -54.9645 2.25875 -1.02835 77.1944 -14.6989 -15.2001 50.0602 -11.3855 0.169841 -0.136602 7.79211 -89.7576 11.2897 -0.158909 0.498406 -0.38129 -0.136806 0.504905 -22.9159 -0.301341 0.427612 -2.90326 -0.301355 0.427602 95.7264 -40.4862 -93.3381 15.2818 -23.3094 -60.4539 -9.25243 -4.75186 -120.778 -1.01794 2.11532 9.64372 -108.861 -60.6271 56.1454 20.9153 -45.03 0.359633 12.4368 19.4877 -87.2576 9.68471 0.632614 2.51594 -8.09995 23.9216 10.3198 4.19158 23.7843 9.55369 
72.2727 87.9845 172.623 -101.249 -49.4298 -103.009 -167.393 28.7155 103.536 -47.7847 26.9436 -4.21573 61.4417 0.296868 14.2231 34.3107 1.58541 9.88481 165.782 16.7987 82.6537 -55.2515 1.67701 -0.859679 77.4085 -14.7803 -15.1428 49.4023 -10.9549 -0.645838 -0.236215 7.80865 -89.7499 11.2572 -0.353649 0.532782 -0.413778 -0.329848 0.547823 -22.9488 -0.497417 0.401863 -2.93613 -0.497421 0.401865 95.705 -40.5406 -93.367 15.5128 -22.9949 -60.3986 -8.96202 -5.47423 -120.615 -1.21169 2.04297 9.62862 -108.729 -60.6484 56.3211 20.4552 -44.558 0.196835 11.181 19.0764 -87.0878 8.91876 0.515749 2.41625 -8.40125 23.7694 10.6736 4.89653 23.673 9.29223 
72.6217 87.7573 172.995 -100.889 -49.6461 -103.03 -167.779 29.7269 102.779 -49.8602 27.9115 -3.78396 61.3262 0.0911626 13.9049 34.8972 1.9458 10.7571 165.557 17.5306 81.9105 -55.8752 1.11762 -0.902712 77.671 -14.9857 -15.0278 49.0885 -10.7337 -1.12238 -0.245929 7.75229 -89.708 11.3699 -0.353086 0.617119 -0.301149 -0.325596 0.632061 -22.8359 -0.52223 0.482473 -2.82325 -0.522241 0.482473 95.7093 -40.9546 -93.2946 14.1376 -23.4466 -60.7645 -8.97554 -4.39675 -120.333 -1.52897 1.94047 9.72592 -108.434 -60.4611 56.622 20.2394 -43.9292 0.219229 9.61841 18.8484 -87.151 8.30349 0.393067 2.60132 -8.29115 23.5199 10.0607 4.83368 23.4706 9.57756 
73.0417 87.6388 173.486 -101.191 -50.0703 -103.174 -167.97 31.1154 102.378 -52.9866 28.6419 -3.1395 61.6552 0.921415 12.1984 34.537 -0.226907 13.2728 165.323 17.5885 81.4134 -56.2414 0.47155 -0.908373 77.3919 -14.5328 -15.0488 48.8293 -10.5571 -1.44507 -0.280791 7.75445 -89.7274 11.3658 -0.431549 0.586291 -0.30522 -0.40529 0.604709 -22.8403 -0.587784 0.429502 -2.82766 -0.58778 0.429495 95.8511 -40.9046 -93.0556 14.1891 -23.136 -60.5863 -8.44634 -4.71728 -120.557 -1.73333 1.91038 10.0699 -108.379 -60.4037 56.6685 19.5106 -42.4688 -0.257229 9.26873 18.2394 -87.8679 9.84142 0.523917 3.72552 -7.9116 23.4312 9.73177 4.72844 23.3584 9.59437 
73.5431 87.3491 174.228 -101.209 -50.3988 -103.174 -167.426 33.1535 102.166 -56.6797 28.8233 -2.78401 62.032 1.81669 10.4092 34.9276 0.0156283 13.8582 164.998 17.9723 80.6416 -56.9147 0.0272311 -0.907228 77.3566 -14.1182 -14.7072 48.6825 -10.4016 -2.0494 -0.311324 7.73109 -89.7422 11.4127 -0.499139 0.563883 -0.25827 -0.473826 0.585298 -22.7937 -0.645524 0.387805 -2.78102 -0.645543 0.387788 95.9519 -40.5484 -92.9343 14.0852 -23.2164 -60.2569 -8.02863 -4.53121 -120.527 -2.86748 1.49506 10.0835 -108.081 -60.2609 56.991 18.4154 -40.6896 -0.990511 9.64591 17.6664 -88.691 9.31151 0.39751 4.03717 -7.63939 23.2391 9.51098 4.8602 23.1482 9.37263 
74.2359 87.2578 175.059 -100.714 -50.0845 -102.67 -167.541 34.8373 102.684 -59.7119 29.6967 -2.12424 62.0761 1.85784 9.68825 36.4027 2.91336 12.9958 164.787 18.6235 79.792 -57.1318 -0.800975 -0.945593 76.7481 -13.4305 -14.0654 48.7768 -10.3754 -2.6435 -0.300342 7.66304 -89.7676 11.5488 -0.488838 0.513349 -0.122197 -0.465769 0.534364 -22.6577 -0.620523 0.342702 -2.64502 -0.620528 0.342693 95.9959 -40.721 -92.8308 13.3035 -23.5428 -59.8079 -7.69833 -4.09772 -120.394 -3.97119 1.12178 10.3595 -107.698 -60.2143 57.4633 17.1765 -37.5965 -1.32406 11.7346 16.2898 -90.8707 8.51124 0.188721 4.35705 -7.51507 23.1366 9.39793 5.08361 23.045 9.21643 
